<?xml version="1.0" encoding="utf-8"?>
<!-- Generator: Adobe Illustrator 29.7.1, SVG Export Plug-In . SVG Version: 9.03 Build 0)  -->
<svg version="1.0" id="Layer_1" xmlns="http://www.w3.org/2000/svg" xmlns:xlink="http://www.w3.org/1999/xlink" x="0px" y="0px"
	 viewBox="0 0 157.1 157.1" style="enable-background:new 0 0 157.1 157.1;" xml:space="preserve">
<style type="text/css">
	.st0{clip-path:url(#SVGID_00000109708755104190842660000011757656487729973123_);}
	.st1{clip-path:url(#SVGID_00000097464518805882885680000000811516808861696666_);}
	.st2{clip-path:url(#SVGID_00000139261328797794280180000009040623062163303081_);}
	.st3{clip-path:url(#SVGID_00000091721873470517507800000016944706396862685085_);}
	.st4{clip-path:url(#SVGID_00000003800867599970106940000002413483639554709904_);}
	.st5{fill:#171B39;}
	.st6{clip-path:url(#SVGID_00000158746313195152727730000000165927133890279817_);}
	.st7{fill:#F8F8F0;}
</style>
<g>
	<defs>
		<rect id="SVGID_1_" width="157.1" height="157.1"/>
	</defs>
	<clipPath id="SVGID_00000179638255377267357760000008546765371372811161_">
		<use xlink:href="#SVGID_1_"  style="overflow:visible;"/>
	</clipPath>
	<g style="clip-path:url(#SVGID_00000179638255377267357760000008546765371372811161_);">
		<g>
			<defs>
				<circle id="SVGID_00000142865231303391537710000009143838672112987805_" cx="78.6" cy="78.6" r="78.6"/>
			</defs>
			<clipPath id="SVGID_00000009569162894837839330000004165925233237014200_">
				<use xlink:href="#SVGID_00000142865231303391537710000009143838672112987805_"  style="overflow:visible;"/>
			</clipPath>
			<g style="clip-path:url(#SVGID_00000009569162894837839330000004165925233237014200_);">
				<g transform="matrix(1, 0, 0, 1, 128, 128)">
					<g>
						<defs>
							<rect id="SVGID_00000049213195892047165340000000034577477581295232_" x="-128.8" y="-128.8" width="158.7" height="158.7"/>
						</defs>
						<clipPath id="SVGID_00000080895788978647219080000017501718208213805482_">
							<use xlink:href="#SVGID_00000049213195892047165340000000034577477581295232_"  style="overflow:visible;"/>
						</clipPath>
						<g style="clip-path:url(#SVGID_00000080895788978647219080000017501718208213805482_);">
							<g>
								<defs>
									<rect id="SVGID_00000141423570042335224430000007196260172836552100_" x="-128" y="-128" width="157.1" height="157.1"/>
								</defs>
								<clipPath id="SVGID_00000027593594060132857440000008600508026042777731_">
									<use xlink:href="#SVGID_00000141423570042335224430000007196260172836552100_"  style="overflow:visible;"/>
								</clipPath>
								<g style="clip-path:url(#SVGID_00000027593594060132857440000008600508026042777731_);">
									<g>
										<defs>
											<circle id="SVGID_00000057869665185661928120000008371411512007779469_" cx="-49.4" cy="-49.4" r="78.6"/>
										</defs>
										<clipPath id="SVGID_00000099629355658680812530000008047824974825278338_">
											<use xlink:href="#SVGID_00000057869665185661928120000008371411512007779469_"  style="overflow:visible;"/>
										</clipPath>
										<g style="clip-path:url(#SVGID_00000099629355658680812530000008047824974825278338_);">
											<path class="st5" d="M-128-128H29.1V29.1H-128V-128z"/>
										</g>
									</g>
								</g>
							</g>
						</g>
					</g>
				</g>
			</g>
		</g>
	</g>
</g>
<g>
	<defs>
		<rect id="SVGID_00000060715056323763067100000000305174432940667030_" x="19.8" y="16.9" width="118" height="140"/>
	</defs>
	<clipPath id="SVGID_00000106137189159860975780000001767278082696221885_">
		<use xlink:href="#SVGID_00000060715056323763067100000000305174432940667030_"  style="overflow:visible;"/>
	</clipPath>
	<g style="clip-path:url(#SVGID_00000106137189159860975780000001767278082696221885_);">
		<path class="st7" d="M73.3,23.6c-1.1-1.3-1.9-2.5-3.3-3.6c2.7,0.1,4.7,0.9,6.5,2.3c1.3,1.1,2.2,1.8,3.7,0.1c1.6-1.7,4-2.1,6.5-2.3
			c-1.5,1.2-2.8,2.4-3.6,4.2c3.9-2,7.9-2.2,12.4-1.4c-1.8,0.8-3.3,1.3-5,2.5c5-1,9.4-0.4,13.9,1.7c-1.4,0.4-2.7,0.3-3.9,1
			c5.5,0.4,9.8,2.7,13,7.4c-1.6-0.3-2.8-0.9-4.6-0.7c3.5,1.4,5.7,3.6,7.5,6.3c0.2,0.3,0.4,0.7,0.6,1c0.1,0.3,0.4,0.7,0.1,0.9
			c-0.2,0.2-0.6,0-0.8-0.1c-0.7-0.1-1.4-0.1-2.3-0.2c0.6,0.8,2,1.4,0.4,2.3c-0.4,0.2-0.3,0.8-0.1,1.1c0.6,1.9,1.2,3.8,1.3,5.9
			c0.7-1.6,0.6-3.2,0.2-4.8c-0.2-1.1,0.1-1.6,1.1-1.8c0.9-0.2,1.8-0.4,2.7-0.7c4.5-1.4,6.9-4.8,8-9.2c1.3-4.9,0.3-9.5-1.3-14.2
			c-0.3-0.8-0.6-1.6-0.8-2.4c-0.1-0.3-0.6-0.7-0.1-1c0.4-0.2,0.8-0.1,1.1,0.1c1.2,0.7,2.2,1.5,3.2,2.5c5.1,5.7,7.8,12.3,7.4,20
			c-0.7,10.6-8,18.8-18.3,21.1c-0.4,0.1-0.8,0-1,0.5c2,0.3,3.9-0.4,5.7-0.7c4.3-0.8,9.8,2,11.4,6.1c0.1,0.3,0.1,0.6,0.2,0.9
			c-0.7,0.3-1.3,0-2,0.1c0.3,0.8,1.1,1.3,0.8,2.2c-0.2,0.8-0.9,1.3-1.5,1.8c-2.3,2-4.7,4-8.2,4.2c1,1.1,2.2,0.7,3.4,1
			c-3,2.6-7.4,3.6-12.2,1c-0.3,2.1-1,4-1.6,6c-0.8,2.5,0.3,4.8,0.8,7.2c0.7,3.3,0.4,6.5,0.1,9.8c0,0.4-0.2,0.7-0.5,1.5
			c-0.9-2.3-1.7-4.3-2.5-6.2c1.1,4.9,1.5,9.7,0.3,14.6c-0.4,1.5-1.1,3-2.2,4.6c-0.3-2.2-0.5-4.2-0.8-6.3c-1.3,8.4-3.5,11.5-6.9,16.9
			c-0.6-2.2,0.7-4.3-0.2-6.7c-0.9,2.7-1.5,5-2.4,7.2c-0.9,2.2-2.1,4.4-4.3,6c-0.1-1.5,0.1-2.9-0.5-4.1c-1.1,0.9-1.4,1.9-1.1,3.3
			c0.8,4.1,0.7,8-1.9,11.6c-0.3,0.4-0.6,0.9-1.3,1.2c0.6-2.9-0.1-5.6-1.1-8.2c-0.1,5.8-0.7,11.4-5.6,15.9c0.6-2.3,0.9-4.2,0.4-6.2
			c-1,4.1-2.5,7.9-6.3,10.6c0.7-4,0.4-7.6-1.8-11.1c0,3,0.3,5.8-1.4,8.4c-2.8-5.2-6.8-9.9-6.7-16.2c-1.2,2.6-0.7,5.2-0.8,7.9
			c-0.7-0.1-1.1-0.6-1.5-1.1c-3-3.8-3.6-8.1-2.9-12.7c0.2-1.4,0-2.4-1.2-3.2c-0.8,0.8-0.1,2-0.9,2.9c-3.4-3.4-4.7-7.8-6-12.3
			c-0.6,2.2-0.5,4.3-0.3,6.6c-3.9-4.6-6-9.9-6.5-16c-0.2,1.7-1,3.3-1,5c-3.8-6-3.8-12.3-2.1-18.9c-0.9,2.2-1.9,4.5-3,7.1
			c-0.8-4.1-1-7.8-0.3-11.6c0.2-1,0.4-1.9,0.7-2.9c0.7-2.3,0.8-4.6-0.3-6.8c-0.5-1-0.2-2.7-1.1-3.1c-0.7-0.3-2,0.6-3.1,0.8
			c-3,0.5-5.6-0.6-8.3-2c1.1-0.7,2.3-0.3,3.2-1.3c-4.2-0.2-7-2.6-9.6-5.3c-0.3-0.3-0.8-0.6-0.6-0.9c0.9-1.2,0.2-1.9-0.7-2.6
			c-0.5-0.3-0.1-0.8,0.1-1c2.1-3.5,6.4-7.2,12.2-5.4c1.6,0.5,3.3,0.6,4.9,0.2c-6-1-10.8-4.1-14.5-8.8c-3.8-4.8-5-10.3-4.6-16.3
			C20.6,27,27.4,18.1,32,17c0.3,0.8-0.1,1.4-0.4,2.1c-1.8,4.4-3.1,8.8-2.8,13.6c0.3,5.9,4,10.3,9.2,12.5c0.4,0.2,0.6,0.1,0.9-0.2
			c0.3-0.3,0.7-0.4,1.1-0.1c0.3,0.3,0.7,0.6,0.4,1.2c-0.4,0.9-0.8,1.8-0.8,2.8c0.1,0.9,0.2,1.8,0.4,2.9c0.7-1,0.4-2.2,0.8-3.2
			c0.5-1.3,0.8-2.7,1.5-3.9c0.6-0.9,0.1-1.1-0.7-1c-0.7,0-1.5,0-2.2,0c-0.9,0-1-0.4-0.6-1.1c0.9-1.6,2-3,3.6-4
			c-0.9,0.2-1.8,0.5-3.2,0.8c2.3-4.3,5.5-6.8,10.2-8.1c-1.1-0.3-1.9-0.5-3.1-0.8c3.9-3.2,8-4.9,13-4.9c-1-0.8-2.2-0.8-3.1-1.8
			c3.4-0.9,6.7-0.9,10.3,0.2c-1.4-1.4-2.9-1.8-4.4-2.6c2-0.7,3.8-0.5,5.6,0.1C69.5,22.3,71.2,22.9,73.3,23.6z M65.9,90.3
			c0.9-0.9,1.7-1.7,2.6-2.6c-0.7-0.5-1.2,0.3-1.7-0.1c0.5-1.1,2.1-1.2,2.2-2.6c-0.5-0.1-0.8,0.6-1.1,0.2c-0.4-0.5,0.2-0.6,0.5-0.9
			c0.3-0.4,0.6-0.8,1-1.3c-0.7-0.1-1.2,0.6-1.8,0.1c0.6-0.5,1.2-1,1.5-1.8c0.1-0.2,0.5-0.6,0-0.7c-1.3-0.1-0.3-0.7-0.1-0.8
			c0.9-0.7,1.3-1.5,1.4-2.6c0.1-0.4-0.1-1.1,0.7-1.4c0.3,1.7,0.9,3,2.3,4c0.1,0.1,0.2,0.3,0.3,0.5c-1.6,0.7,0.1,1.2,0.1,1.8
			c0,0.2,0.2,0.5,0.1,0.6c-0.5,0.3-0.8-0.2-1.2,0c0.5,1.2,1.5,1.9,2.2,3c-0.7,0.2-1.3,0.4-2,0.7c1.1,1,2,1.9,2.7,3.1
			c-1,0.2-2,0-3-0.6c0.7,1.6,2.3,1.9,3.1,3c-0.4,0.5-0.8-0.3-1.2,0.3c0.6,0.6,0.9,1.8,1.8,2c0.7,0.1,1-1,1.4-1.6
			c-0.6,0-1.1-0.1-1.8-0.1c0.9-0.8,1.6-1.5,2.2-2.1c-0.4-0.4-1,0.1-1.3-0.5c0.5-0.8,1.6-1.3,1.4-2.6c-0.4-0.3-0.7,0.5-1,0
			c-0.2-0.4,0.2-0.7,0.4-1c0.4-0.5,0.7-0.9,1-1.4c0.1-0.2,0.5-0.5-0.1-0.6c-0.9-0.1-0.5-0.5-0.1-0.9c0.4-0.4,0.9-0.7,1.1-1.3
			c-0.3-0.1-0.6,0.3-0.9,0c1.2-0.9,1.5-2.3,2.3-3.6c0.3,1.2,0.9,1.9,1.5,2.6c-0.3,0.5-0.8-0.2-0.9,0.2c-0.1,0.4,0.2,0.8,0.5,1
			c0.3,0.2,0.7,0.4,1,0.6c0.1,0.1,0.1,0.3,0.1,0.4c-0.3,0.3-0.8,0-1.2,0.4c0.5,0.6,1,1.3,1.6,2c-0.7,0.3-1-0.3-1.6-0.2
			c0.7,1.3,1.4,2.6,2.7,3.3c-0.5,0.8-1.3,0.2-2,0.5c0.4,0.9,1.8,1.1,1.7,2.4c-0.5,0.1-0.9-0.7-1.6,0c0.4,0.3,0.9,0.5,1.2,0.9
			c0.7,0.9,1.4,0.8,1.7-0.1c0.3-1.1,1-1.4,2-1.7c0.4-0.1,0.4-0.4,0.3-0.7c-0.1-0.3-0.4-0.2-0.6-0.2c-0.5,0-1.1,0.6-1.6-0.1
			c1-1.4,2.7-2.2,3.3-4.1c-1,0-1.7,0.8-2.8,0.5c0.9-1.1,2.2-1.9,2.6-3.3c-0.6-0.1-0.9,0.6-1.6,0.6c0.5-1.8,2.3-2.8,2.8-4.7
			c-0.6,0.5-0.9,1.1-1.9,1.2c2.1-2.6,2.2-5.7,2.8-8.9c1.3,2.2,0.6,4.7,2.2,6.3c-0.6,0.5-0.9-0.4-1.4,0.1c0.4,0.9,1.8,1,2,2.1
			c-0.5,0.3-1-0.1-1.5,0.1c0.6,1.2,2.2,1.7,2.4,3.1c-0.5,0.6-1-0.3-1.4,0.1c0.7,1.6,2.4,2.1,3.4,3.6c-1,0.2-2-0.2-2.8,0.5
			c0.5,0.4,1.1,0.8,1.6,1.1c0.5,0.3,1.6,0.3,1.4,1c-0.2,0.8-1.2,0.4-1.8,0.5c-0.1,0-0.1,0.1-0.1,0.2c0.8,0.8,2.5,0.8,2.6,2.5
			c-0.7-0.2-1.1-0.5-1.8-0.4c0.7,1.4,2.5,1.8,2.8,3.3c-0.8,0.4-1.4-0.4-2.2-0.3c1.5,0.7,1.9,2.5,3.3,3.5c-0.1-2.7,0.4-5.3-0.5-7.7
			c0.9,0.9,0.9,2.3,2,3.4c-0.1-1.8-0.6-3.2-1.3-4.5c-3.2-6.1-4.4-12.3-1.4-18.8c1.3-2.8,0.5-4.2-2.4-5.3c0,0.7,0,1.3,0,2.3
			c-1.5-2-2.9-3.7-4.1-5.5C91,60.7,91,59.8,91.4,59c0.3-0.6,0-1-0.6-1.5c-0.3,1.2,0,2.4-0.7,3.3c-1.2,1.3-0.3,2.1,0.7,2.7
			c0.8,0.5,1.3,1.2,1.6,2.3c-0.4-0.3-0.5-0.4-0.7-0.5c-1.7-1.3-1.8-1.4-2.8,0.5c-2.2,4-5.4,6.9-9.4,9c-0.4,0.2-0.9,0.7-1.6,0.3
			c1.9-2.4,3.4-5.2,5.5-7.4c1.1-1.1,1.4-2.3,1.5-3.8c-4.5,4.5-5.9,5.6-7.7,5.9c1-1.3,2.1-2.4,2.6-4c-1.3,1.4-2.5,2.8-4,4
			c-1.9,1.6-3.6,2.4-5.2,2.5c2-0.9,3.1-2.6,4.7-3.9c-1.3,0-2.3,0-3.2-0.7c-1.5-1.1-1.9-1-3.1,0.5c-1.2,1.6-2,3.4-4.2,4.2
			c-2.7,1-3.5,3.6-3.9,6.3c-0.5,4.3-1.6,8.4-4.8,12c1.1-0.1,1.7-0.8,2.7-1.3c-2,2.8-2.5,5.6-2,8.7c0.3-0.7,0.6-1.8,0.8-1.8
			c1.7,0.2,1.9-1.4,2.8-2c-0.3-0.1-0.5-0.1-0.6,0c-0.4,0.2-0.8,0.3-1-0.1c-0.3-0.5,0.3-0.7,0.5-1c0.3-0.5,1.1-0.5,1.2-1.2
			c-0.6-0.3-0.9,0.6-1.5,0.2c0.6-0.9,1.6-1.4,2.2-2.4c-0.5-0.1-0.9-0.1-1.3-0.2c0.4-1,1.1-1.7,1.7-2.4c-0.4-0.5-0.8,0.5-1.1-0.1
			c0.5-0.7,1.5-1.1,1.4-2c-0.1-0.9-0.3-0.9,0.1-1.2c0.2-0.2,0.7-0.3,0.5-0.7c-0.5-0.9,0.1-1.5,0.4-2.3c0.6,3.2,2.3,6,3.3,9
			c-0.3,0-0.7,0.1-1.1,0.1c0.4,0.6,0.7,1.1,1,1.6c-0.4,0.4-0.7-0.1-1,0.1c0.2,0.6,0.6,0.9,1.1,1.3c0.4-1.2,1.6-1.7,2.6-2.8
			C67.5,90.8,66.5,91.3,65.9,90.3z M59.1,69.2c0.3,0.9,0.8,1.2,1.2,1.6c0.6,0.7,1.1,0.8,1.6-0.1c0.5-0.8,1.4-1.4,2.4-1.4
			c1.6,0,2.4-1,3.2-2.1c0.4-0.6,0.9-1.2,1.4-1.8c0.8-1.1,1.5-1.3,2.6-0.3c1.7,1.6,2.6,1.4,4.3-0.3c0.5-0.5,0.9-1.1,1.3-1.6
			c1.5-1.9,3.2-3.8,5.3-4.8c2.3-1,4.4-2.2,6.4-3.6c1.2-0.9,2.4-0.7,3.6,0c1.6,0.9,2.9,2.1,3.8,3.5c1.4,2.1,3.7,2.3,5.5,3.6
			c0.7,0.4,1.5,0.4,2.3,0.1c1.6-0.6,3.2-0.5,4.8,0.5c-0.5-1.4-1.2-2.1-2.1-2.8c-0.9-0.7-2-0.8-3.3-0.9c0.7-1.1,1.9-1.9,1.2-3.3
			c-0.7-1.5-1.9-2.2-3.5-2c-0.7,0.1-1-0.3-1.3-0.7c-0.9-1-1.9-1.7-3.4-1.1c-1.9,0.7-4,0.1-5.9,0.8c-0.3,0.1-0.3-0.1-0.3-0.2
			c-0.3-1.4-1.6-1.5-2.6-2c-0.7-0.3-1.5-0.5-2.3-0.8c1-0.2,1.9-0.2,2.8-0.2c0.8,0,1.6,0.1,2.1-0.4c0.9-1,1.9-1.2,3.1-0.6
			c0.1-0.6-0.1-1-0.3-1.1c-1.8-0.4-3-2-4.7-2.7c-0.7-0.3-1-0.5-1.1-1.2C87,42,86.4,40.7,85,40c-2.7-1.6-5.2-1-7.3,1.7
			c-0.4,0.5-0.6,0.7-1.3,0.8c-2,0.1-3.1,1.3-3,3.2c0.1,1.3-0.9,2-2.2,1.7c-0.2-0.1-0.4-0.5-0.8-0.1c0.6,1.9,2,2.8,3.8,3.4
			c-2,0.6-4,0.9-5.8,0.1c-3-1.4-2.8-4.4-2.9-7.3c-2.8,2.3-3.8,5.1-2.6,7.8c2,4.6,5.9,3.8,10.1,2.9c-2,1.3-3.4,2.5-5.6,2.5
			c0.8,0.8,1.9,0.9,2.7,1.7c-2.2,0.3-4.3-0.3-6.3,0.5c-0.1,0-0.2,0-0.3,0c-0.6-1.5-1.7-1.8-3.1-1.7c-0.1,0-0.2-0.3-0.3-0.4
			c-1.2-1.8-2.3-2.3-4.3-1.9C54.4,55,53.3,56.3,53,58c-0.1,0.6-0.2,0.8-0.8,0.9c-1.8,0.2-3.2,1.2-3.8,2.5c3.1-1.7,8.4,0.8,8.6,4
			c-0.5,0-0.8-0.7-1.6-0.5c1.7,1.5,1.8,3.9,3.2,5.6C58.8,70.2,58.9,69.9,59.1,69.2z M92.9,119.3c0.3-1.2,0.7-2.4,0.9-3.6
			c0.1-0.8,0.1-1.6,0.1-2.4c0-3-2.9-6.8-6.8-5.9c-1.2,0.3-2.4,0.6-3.6,1.1c-3.6,1.4-7.2,1.7-10.8,0c-1.1-0.5-2.2-0.9-3.4-1.2
			c-3.1-0.9-5.3,0.3-6.4,3.3c-1.1,3-0.7,5.8,0.8,8.6c0.1-0.5,0-0.8,0-1.2c-0.3-2.3-0.4-4.7,0.5-6.9c0.7-1.5,1.3-1.8,2.8-1.2
			c1.7,0.7,3.5,1.4,5.3,1.9c5.1,1.5,10,1.9,14.8-1.1c2.5-1.6,3.9-1.1,5.1,1.7c0.6,1.5,0.9,3,0.5,4.7
			C92.6,117.8,92.6,118.5,92.9,119.3z M41.7,72.3c0-0.1,0.1-0.2,0-0.3c-0.7-3.1-1.4-6.1,0.8-8.9c0.2-0.3,0.4-0.8,0.3-1.1
			c-0.5-2.6,0.2-5.2-0.1-7.8c-0.7,1.5-1.9,3-1.6,4.6c0.3,2.2,0,3.9-1,5.8C38.8,67,39.7,70.8,41.7,72.3z M68.1,128.8
			c3.3-0.5,6.6-0.9,9.9-1c3.3,0,6.6,0.7,9.9,0.9C81.3,125,74.7,126.1,68.1,128.8z M113.5,52.7c0.5,2.6,0.6,5.1,0.5,7.7
			c-0.1,1.3,0.2,2.6,0.9,3.7c0.7,1.1,0.9,2.4,0.9,3.7c0,1.6-0.7,3.2-0.9,5.2c1.8-2.9,3-5.5,1.4-8.4c-1.1-2-1.5-4.1-1.4-6.3
			C114.9,56.3,114.3,54.4,113.5,52.7z M53.8,79c-1.7,1.1-3.3,1.5-4.9,0.4c-1.6-1.1-1.6-2.8-1.5-4.8c-1,2.1-0.5,5.1,0.9,6.6
			c0.9,1,2,1.6,3.3,1.1C52.9,81.7,53.6,80.7,53.8,79z M46,73.2c4.7-1.9,7,0.9,9.2,4.2c-0.5-2.5-1.5-4.7-3.8-6.2
			C49.8,70.1,47,70.4,46,73.2z M103.1,79c0.2,2.4,2,3.9,3.8,3.2c2.5-0.9,4-4.6,2.9-7.1C109.4,79.8,106.7,81.4,103.1,79z M110.7,73.2
			c-0.9-1.9-2.3-3-3.4-2.8c-2.8,0.5-5.3,3.8-5.5,6.7C103.9,73.6,106.3,71.4,110.7,73.2z M83.8,114.7c-2,2.7-2,5.5-0.4,6.5
			c1.6,1,4.2-0.1,5.7-2.6c-1.5,0.9-2.9,1.6-4.4,0.5C83.2,118.1,83.2,116.7,83.8,114.7z M67.4,119.2c1.6,2.3,3.8,3.1,5.1,2
			c1.2-1,1.7-3.7,0.7-4.8C73.6,119.9,71,120.9,67.4,119.2z M87.3,93.1c-1.4,0.3-2.5,1-4,0.3C85.1,94.9,85.5,94.9,87.3,93.1z
			 M107.9,75.2c-0.1-0.4-0.5-0.7-0.9-0.7c-0.5,0-0.6,0.4-0.6,0.8c0,0.4,0.3,0.6,0.7,0.6C107.7,76,107.8,75.6,107.9,75.2z"/>
	</g>
</g>
</svg>
